<svg width="1552" height="96" viewBox="0 0 1552 96" fill="none" xmlns="http://www.w3.org/2000/svg">
<path d="M8.10623e-05 40.8856C8.10623e-05 46.7767 4.77571 51.5523 10.6667 51.5523C16.5578 51.5523 21.3334 46.7767 21.3334 40.8856C21.3334 34.9946 16.5578 30.219 10.6667 30.219C4.77571 30.219 8.10623e-05 34.9946 8.10623e-05 40.8856ZM1550.82 42.0136C1551.44 41.1015 1551.21 39.8571 1550.29 39.2341L1535.43 29.0819C1534.52 28.4589 1533.27 28.6932 1532.65 29.6054C1532.03 30.5175 1532.26 31.7619 1533.17 32.3849L1546.39 41.4091L1537.36 54.6214C1536.74 55.5335 1536.97 56.7779 1537.89 57.4009C1538.8 58.0239 1540.04 57.7895 1540.67 56.8774L1550.82 42.0136ZM1083.67 68.8856L1083.48 70.8766V70.8766L1083.67 68.8856ZM386.667 58.3856L385.788 56.5891L386.667 58.3856ZM1083.67 68.8856L1083.48 70.8766C1151.13 77.3105 1326.32 84.8925 1549.54 42.8511L1549.17 40.8856L1548.8 38.9202C1326.02 80.879 1151.21 73.3004 1083.86 66.8946L1083.67 68.8856ZM10.6667 40.8856L9.76489 42.6707C106.063 91.3216 255.445 124.799 387.546 60.1822L386.667 58.3856L385.788 56.5891C255.25 120.442 107.27 87.4496 11.5686 39.1005L10.6667 40.8856ZM386.667 58.3856L387.546 60.1822C513.802 -1.57656 640.449 -3.46481 759.23 12.3906C818.633 20.3199 876.02 32.6793 930.418 44.1957C984.778 55.7041 1036.19 66.379 1083.48 70.8766L1083.67 68.8856L1083.86 66.8946C1036.83 62.4223 985.648 51.7997 931.247 40.2825C876.883 28.7733 819.341 16.3789 759.759 8.42573C640.572 -7.48391 513.031 -5.65218 385.788 56.5891L386.667 58.3856Z" fill="#5D5D5D"/>
</svg>
